# xmcd CD database file
#
# Track frame offsets:
#	150
#	20235
#	40367
#
# Disc length: 803 seconds
#
# Revision: 0
# Processed by: cddbd v1.5.1PL0 Copyright (c) Steve Scherf et al.
# Submitted via: CDex 1.51
#
DISCID=23032103
DTITLE=ともさかりえ - くしゃみ
DYEAR=1900
DGENRE=JPop
TTITLE0=くしゃみ
TTITLE1=恋をしたら海へ行こう
TTITLE2=くしゃみ(オリジナルカラオケ)
EXTD=
EXTT0=
EXTT1=
EXTT2=
PLAYORDER=
